<svg width="172" height="48" viewBox="0 0 172 48" fill="none" xmlns="http://www.w3.org/2000/svg">
<path d="M22.592 47.488C17.8987 47.488 13.8453 46.528 10.432 44.608C7.06134 42.688 4.48001 39.9573 2.68801 36.416C0.896007 32.8747 7.15256e-06 28.672 7.15256e-06 23.808C7.15256e-06 18.944 0.896007 14.7413 2.68801 11.2C4.48001 7.61599 7.06134 4.86399 10.432 2.94399C13.8453 0.981322 17.8987 -1.14441e-05 22.592 -1.14441e-05C27.328 -1.14441e-05 31.36 0.981322 34.688 2.94399C38.0587 4.86399 40.64 7.61599 42.432 11.2C44.2667 14.7413 45.184 18.944 45.184 23.808C45.184 28.672 44.2667 32.8747 42.432 36.416C40.64 39.9573 38.0587 42.688 34.688 44.608C31.36 46.528 27.328 47.488 22.592 47.488ZM22.592 38.4C24.9387 38.4 26.9227 37.824 28.544 36.672C30.208 35.52 31.488 33.856 32.384 31.68C33.28 29.504 33.728 26.88 33.728 23.808C33.728 20.736 33.28 18.112 32.384 15.936C31.488 13.7173 30.208 12.032 28.544 10.88C26.88 9.68532 24.8747 9.08799 22.528 9.08799C20.224 9.08799 18.24 9.68532 16.576 10.88C14.912 12.032 13.632 13.7173 12.736 15.936C11.8827 18.112 11.456 20.736 11.456 23.808C11.456 26.88 11.8827 29.504 12.736 31.68C13.632 33.856 14.912 35.52 16.576 36.672C18.24 37.824 20.2453 38.4 22.592 38.4ZM53.2535 22.08H48.9655V14.464H53.2535V4.22399H62.2775V14.464H70.2135V22.08H62.2775V34.688C62.2775 38.208 63.3655 39.488 65.6055 39.488C66.7575 39.488 68.1015 39.104 69.5735 38.208L71.4295 45.44C68.8055 46.528 66.3735 47.104 63.9415 47.104C57.2855 47.104 53.2535 43.84 53.2535 35.2V22.08ZM77.5035 22.08H73.2155V14.464H77.5035V4.22399H86.5275V14.464H94.4635V22.08H86.5275V34.688C86.5275 38.208 87.6155 39.488 89.8555 39.488C91.0075 39.488 92.3515 39.104 93.8235 38.208L95.6795 45.44C93.0555 46.528 90.6235 47.104 88.1915 47.104C81.5355 47.104 77.5035 43.84 77.5035 35.2V22.08ZM118.778 14.464L117.242 22.848C115.834 22.4 114.746 22.208 113.722 22.208C109.754 22.208 109.114 25.28 109.114 29.952V46.464H100.09V14.464H109.114V17.472C110.714 14.912 112.762 13.824 115.258 13.824C116.346 13.824 117.498 14.016 118.778 14.464ZM125.121 46.464V22.08H121.409V14.464H129.921C133.121 14.464 134.145 14.976 134.145 17.984V46.464H125.121ZM125.313 10.112V1.66399H134.017V10.112H125.313ZM163.027 34.56L171.219 38.208C168.915 43.52 164.115 47.104 156.755 47.104C146.131 47.104 140.819 40.448 140.819 30.464C140.819 20.48 146.131 13.824 156.755 13.824C163.603 13.824 168.339 16.96 170.771 21.504L162.963 26.176C161.427 23.04 159.123 21.44 156.755 21.44C152.083 21.44 149.843 24.96 149.843 30.464C149.843 35.968 152.083 39.488 156.755 39.488C159.187 39.488 161.747 37.824 163.027 34.56Z" fill="#252525"/>
</svg>
